# xmcd CD database file
#
# Track frame offsets:
#	150
#	13565
#	25887
#	42750
#	54335
#	68035
#	87070
#	97900
#	113707
#	128692
#
# Disc length: 1970 seconds
#
# Revision: 1
# Processed by: cddbd v1.5.2PL0 Copyright (c) Steve Scherf et al.
# Submitted via: CDex 1.70beta2
#
DISCID=6c07b00a
DTITLE=Bobby James - Life Lessons
DYEAR=1999
DGENRE=Country
TTITLE0=Lil G
TTITLE1=Quarter 4 the Water
TTITLE2=Beauty
TTITLE3=Love Comes Walking Back
TTITLE4=Life Lessons
TTITLE5=Angel of the Golden Heart
TTITLE6=Burbon Eyes
TTITLE7=Sky Blue Eyes
TTITLE8=You
TTITLE9=Haley Ann
EXTD=YEAR: 1999
EXTT0=
EXTT1=
EXTT2=
EXTT3=
EXTT4=
EXTT5=
EXTT6=
EXTT7=
EXTT8=
EXTT9=
PLAYORDER=
